<svg xmlns="http://www.w3.org/2000/svg" xmlns:xlink="http://www.w3.org/1999/xlink" width="500" zoomAndPan="magnify" viewBox="0 0 375 374.999991" height="500" preserveAspectRatio="xMidYMid meet" version="1.0"><defs><g/><clipPath id="61f818a343"><path d="M 103.820312 163.140625 L 149.570312 163.140625 L 149.570312 207.390625 L 103.820312 207.390625 Z M 103.820312 163.140625 " clip-rule="nonzero"/></clipPath><clipPath id="9e6956bb6c"><path d="M 124 163.140625 L 129 163.140625 L 129 169 L 124 169 Z M 124 163.140625 " clip-rule="nonzero"/></clipPath><clipPath id="891d29ad28"><path d="M 104 163.140625 L 149 163.140625 L 149 207 L 104 207 Z M 104 163.140625 " clip-rule="nonzero"/></clipPath></defs><g fill="#000000" fill-opacity="1"><g transform="translate(148.640744, 198.374987)"><g><path d="M 14.617188 -8.839844 L 8.769531 -8.839844 L 11.695312 -17.066406 Z M 23.253906 0 L 13.871094 -23.117188 L 9.554688 -23.117188 L 0.171875 0 L 5.644531 0 L 7.308594 -4.65625 L 16.113281 -4.65625 L 17.78125 0 Z M 23.253906 0 "/></g></g></g><g fill="#000000" fill-opacity="1"><g transform="translate(175.158062, 198.374987)"><g><path d="M 10.503906 -11.21875 C 11.289062 -11.21875 12.035156 -10.980469 12.546875 -10.371094 L 12.613281 -10.371094 L 12.613281 -14.992188 C 12.207031 -15.195312 11.523438 -15.332031 11.082031 -15.332031 C 9.214844 -15.332031 7.921875 -14.277344 7.140625 -13.15625 L 7.140625 -14.992188 L 2.039062 -14.992188 L 2.039062 0 L 7.140625 0 L 7.140625 -7.480469 C 7.140625 -9.28125 8.601562 -11.21875 10.503906 -11.21875 Z M 10.503906 -11.21875 "/></g></g></g><g fill="#000000" fill-opacity="1"><g transform="translate(191.204574, 198.374987)"><g><path d="M 8.464844 -11.050781 L 11.183594 -11.050781 L 11.183594 -14.992188 L 8.464844 -14.992188 L 8.464844 -20.703125 L 3.398438 -20.703125 L 3.398438 -14.992188 L 0.679688 -14.992188 L 0.679688 -11.050781 L 3.398438 -11.050781 L 3.398438 0 L 8.464844 0 Z M 8.464844 -11.050781 "/></g></g></g><g fill="#000000" fill-opacity="1"><g transform="translate(206.163208, 198.374987)"><g><path d="M 1.769531 -20.125 C 1.769531 -18.496094 3.09375 -17.132812 4.757812 -17.132812 C 6.390625 -17.132812 7.75 -18.496094 7.75 -20.125 C 7.75 -21.792969 6.390625 -23.117188 4.757812 -23.117188 C 3.09375 -23.117188 1.769531 -21.792969 1.769531 -20.125 Z M 7.308594 0 L 7.308594 -14.992188 L 2.210938 -14.992188 L 2.210938 0 Z M 7.308594 0 "/></g></g></g><g fill="#000000" fill-opacity="1"><g transform="translate(218.776113, 198.374987)"><g><path d="M 7.988281 -25.5 C 5.269531 -25.5 3.160156 -23.796875 3.160156 -20.09375 L 3.160156 -14.992188 L 1.019531 -14.992188 L 1.019531 -11.050781 L 3.160156 -11.050781 L 3.160156 0 L 8.261719 0 L 8.261719 -11.050781 L 11.761719 -11.050781 L 11.761719 -14.992188 L 8.261719 -14.992188 L 8.261719 -19.480469 C 8.261719 -20.941406 8.535156 -21.519531 9.585938 -21.519531 L 11.761719 -21.519531 L 11.761719 -25.5 Z M 7.988281 -25.5 "/></g></g></g><g fill="#000000" fill-opacity="1"><g transform="translate(234.210695, 198.374987)"><g><path d="M 8.125 8.5 L 11.390625 0 L 17.101562 -14.992188 L 11.933594 -14.992188 L 8.363281 -4.285156 L 4.792969 -14.992188 L -0.339844 -14.992188 L 5.371094 0 L 6.222656 0 L 2.820312 8.5 Z M 8.125 8.5 "/></g></g></g><g fill="#000000" fill-opacity="1"><g transform="translate(254.064774, 198.374987)"><g/></g></g><g fill="#0d6aaa" fill-opacity="1"><g transform="translate(265.652459, 198.374987)"><g><path d="M 14.617188 -8.839844 L 8.769531 -8.839844 L 11.695312 -17.066406 Z M 23.253906 0 L 13.871094 -23.117188 L 9.554688 -23.117188 L 0.171875 0 L 5.644531 0 L 7.308594 -4.65625 L 16.113281 -4.65625 L 17.78125 0 Z M 23.253906 0 "/></g></g></g><g fill="#0d6aaa" fill-opacity="1"><g transform="translate(292.169777, 198.374987)"><g><path d="M 7.140625 0 L 7.140625 -23.117188 L 2.039062 -23.117188 L 2.039062 0 Z M 7.140625 0 "/></g></g></g><path fill="#263151" d="M 115.933594 168.601562 C 115.605469 168.363281 115.253906 168.328125 114.882812 168.496094 C 114.722656 168.566406 114.554688 168.636719 114.382812 168.714844 C 113.695312 169.011719 112.984375 169.324219 112.332031 169.753906 C 111.578125 170.246094 110.929688 170.867188 110.351562 171.414062 C 110.066406 171.671875 109.96875 171.988281 110.0625 172.359375 C 110.164062 172.753906 110.410156 173.011719 110.804688 173.128906 C 111.179688 173.238281 111.507812 173.15625 111.785156 172.882812 L 111.828125 172.84375 C 112.417969 172.289062 112.976562 171.757812 113.625 171.363281 C 114.167969 171.054688 114.726562 170.777344 115.300781 170.539062 C 115.476562 170.464844 115.648438 170.390625 115.820312 170.3125 C 116.160156 170.171875 116.351562 169.917969 116.386719 169.550781 C 116.414062 169.152344 116.261719 168.832031 115.933594 168.601562 Z M 115.933594 168.601562 " fill-opacity="1" fill-rule="nonzero"/><path fill="#263151" d="M 107.273438 171.417969 C 107.636719 171.472656 107.929688 171.351562 108.144531 171.054688 C 109.121094 169.8125 110.273438 168.761719 111.597656 167.902344 C 112.925781 167.039062 114.355469 166.417969 115.886719 166.027344 C 116.261719 165.941406 116.503906 165.714844 116.605469 165.34375 C 116.710938 164.949219 116.621094 164.605469 116.335938 164.308594 C 116.0625 164.03125 115.738281 163.941406 115.359375 164.046875 C 113.632812 164.488281 112.015625 165.191406 110.519531 166.160156 C 109.019531 167.128906 107.714844 168.308594 106.605469 169.699219 C 106.347656 170.019531 106.296875 170.367188 106.449219 170.746094 C 106.597656 171.125 106.871094 171.347656 107.273438 171.417969 Z M 107.273438 171.417969 " fill-opacity="1" fill-rule="nonzero"/><g clip-path="url(#61f818a343)"><path fill="#263151" d="M 147.265625 180.695312 C 147.371094 180.199219 147.511719 179.691406 147.644531 179.203125 L 147.671875 179.097656 C 148.25 178.945312 148.71875 178.625 149.066406 178.140625 C 149.492188 177.558594 149.546875 176.804688 149.21875 176.113281 C 149.1875 176.035156 149.152344 175.957031 149.105469 175.886719 C 149.042969 175.792969 148.972656 175.703125 148.894531 175.621094 C 148.683594 175.367188 148.425781 175.175781 148.125 175.039062 C 148.042969 175.003906 147.957031 174.980469 147.871094 174.964844 C 147.519531 174.859375 147.167969 174.84375 146.808594 174.925781 C 146.453125 175.007812 146.136719 175.167969 145.867188 175.417969 C 145.347656 175.898438 145.109375 176.492188 145.144531 177.199219 C 145.164062 177.707031 145.347656 178.148438 145.695312 178.527344 L 145.667969 178.625 C 145.589844 178.910156 145.507812 179.203125 145.433594 179.5 L 145.359375 179.488281 C 145.015625 179.421875 144.675781 179.433594 144.339844 179.523438 C 143.679688 178.058594 142.644531 176.640625 141.265625 175.304688 C 141.234375 175.269531 141.203125 175.238281 141.167969 175.210938 C 140.515625 174.589844 139.824219 174.015625 139.09375 173.484375 C 135.898438 171.164062 131.976562 169.820312 127.710938 169.582031 C 127.71875 169.359375 127.722656 169.132812 127.722656 168.902344 C 127.855469 168.855469 127.980469 168.796875 128.105469 168.730469 C 129.453125 168.011719 129.953125 166.207031 129.199219 164.789062 C 128.773438 164.003906 128.125 163.511719 127.25 163.3125 C 126.472656 163.125 125.761719 163.273438 125.117188 163.75 L 125.089844 163.773438 C 124.8125 163.972656 124.578125 164.207031 124.378906 164.484375 C 124.183594 164.761719 124.035156 165.0625 123.941406 165.390625 C 123.847656 165.714844 123.808594 166.046875 123.824219 166.386719 C 123.839844 166.726562 123.910156 167.050781 124.039062 167.367188 C 124.34375 168.128906 124.886719 168.648438 125.664062 168.921875 C 125.664062 169.144531 125.664062 169.363281 125.65625 169.589844 C 121.410156 169.832031 117.496094 171.175781 114.320312 173.488281 C 113.589844 174.015625 112.898438 174.589844 112.246094 175.210938 C 112.207031 175.242188 112.167969 175.273438 112.136719 175.308594 C 110.757812 176.640625 109.726562 178.054688 109.074219 179.519531 C 108.960938 179.492188 108.851562 179.472656 108.734375 179.460938 C 108.480469 179.429688 108.226562 179.445312 107.972656 179.5 C 107.898438 179.207031 107.820312 178.914062 107.742188 178.628906 L 107.710938 178.527344 C 108.058594 178.160156 108.242188 177.722656 108.261719 177.21875 C 108.300781 176.511719 108.058594 175.910156 107.542969 175.421875 C 107.273438 175.171875 106.960938 175.003906 106.601562 174.921875 C 106.242188 174.839844 105.886719 174.855469 105.535156 174.964844 C 105.449219 174.980469 105.367188 175.003906 105.285156 175.039062 C 104.980469 175.171875 104.71875 175.367188 104.503906 175.621094 C 104.429688 175.703125 104.359375 175.792969 104.296875 175.882812 C 104.25 175.957031 104.214844 176.03125 104.1875 176.113281 C 103.855469 176.804688 103.90625 177.558594 104.335938 178.136719 C 104.683594 178.625 105.152344 178.945312 105.734375 179.097656 L 105.761719 179.203125 C 105.894531 179.691406 106.035156 180.199219 106.140625 180.699219 C 106.101562 180.742188 106.066406 180.785156 106.03125 180.832031 C 104.640625 182.617188 104.289062 184.988281 104.238281 186.664062 C 104.195312 187.9375 104.347656 189.1875 104.6875 190.414062 C 105.058594 191.75 105.535156 193.238281 106.5 193.910156 C 107.144531 194.363281 107.851562 194.511719 108.625 194.359375 C 109.117188 196.210938 110.09375 198.136719 111.476562 199.976562 C 113.566406 202.78125 116.242188 204.824219 119.507812 206.109375 C 121.65625 206.941406 124.0625 207.375 126.667969 207.386719 L 126.742188 207.386719 C 131.027344 207.363281 134.9375 206.136719 138.046875 203.839844 C 140.578125 201.976562 142.515625 199.625 143.859375 196.785156 C 144.234375 196.003906 144.539062 195.199219 144.773438 194.367188 C 145.199219 194.449219 145.617188 194.4375 146.035156 194.332031 C 147.4375 193.9375 147.953125 192.578125 148.363281 191.488281 L 148.398438 191.398438 C 148.859375 190.175781 149.113281 188.914062 149.164062 187.609375 C 149.269531 185.207031 148.761719 182.980469 147.730469 181.335938 C 147.589844 181.113281 147.433594 180.898438 147.265625 180.695312 Z M 147.265625 180.695312 " fill-opacity="1" fill-rule="nonzero"/></g><path fill="#263151" d="M 139.019531 168.714844 C 138.851562 168.640625 138.683594 168.566406 138.519531 168.492188 C 138.386719 168.433594 138.253906 168.402344 138.109375 168.398438 C 137.964844 168.394531 137.828125 168.421875 137.695312 168.472656 C 137.5625 168.523438 137.445312 168.597656 137.339844 168.699219 C 137.238281 168.796875 137.160156 168.910156 137.101562 169.042969 C 137.046875 169.160156 137.015625 169.28125 137.007812 169.410156 C 137.003906 169.539062 137.023438 169.660156 137.070312 169.78125 C 137.113281 169.902344 137.183594 170.007812 137.269531 170.101562 C 137.359375 170.195312 137.464844 170.265625 137.582031 170.316406 L 138.101562 170.546875 C 138.679688 170.78125 139.234375 171.054688 139.773438 171.363281 C 140.421875 171.757812 140.980469 172.285156 141.570312 172.847656 L 141.613281 172.882812 C 141.808594 173.074219 142.042969 173.167969 142.316406 173.171875 C 142.617188 173.167969 142.871094 173.058594 143.074219 172.835938 C 143.171875 172.742188 143.242188 172.632812 143.292969 172.507812 C 143.34375 172.382812 143.367188 172.253906 143.367188 172.121094 C 143.363281 171.984375 143.335938 171.859375 143.28125 171.734375 C 143.222656 171.613281 143.148438 171.507812 143.046875 171.414062 C 142.472656 170.867188 141.816406 170.246094 141.070312 169.753906 C 140.417969 169.324219 139.707031 169.015625 139.019531 168.714844 Z M 139.019531 168.714844 " fill-opacity="1" fill-rule="nonzero"/><path fill="#263151" d="M 137.515625 166.027344 C 139.046875 166.417969 140.476562 167.039062 141.804688 167.902344 C 143.128906 168.761719 144.28125 169.8125 145.257812 171.054688 C 145.472656 171.351562 145.765625 171.472656 146.128906 171.417969 C 146.53125 171.347656 146.804688 171.125 146.953125 170.746094 C 147.105469 170.367188 147.054688 170.019531 146.796875 169.699219 C 145.6875 168.308594 144.382812 167.128906 142.882812 166.160156 C 141.386719 165.191406 139.769531 164.488281 138.042969 164.046875 C 137.664062 163.945312 137.339844 164.03125 137.066406 164.308594 C 136.78125 164.605469 136.691406 164.949219 136.796875 165.34375 C 136.898438 165.714844 137.140625 165.941406 137.515625 166.027344 Z M 137.515625 166.027344 " fill-opacity="1" fill-rule="nonzero"/><path fill="#ffffff" d="M 143.90625 190.382812 C 143.648438 188.800781 143.472656 187.234375 143.503906 185.632812 C 143.535156 184.171875 143.875 182.722656 143.871094 181.265625 C 143.863281 179.109375 142.4375 177.347656 140.667969 176.246094 C 140.644531 176.230469 140.625 176.234375 140.601562 176.253906 L 140.085938 175.578125 C 140.125 175.542969 140.113281 175.464844 140.050781 175.472656 C 139.183594 175.582031 138.546875 176.101562 137.964844 176.71875 C 137.117188 177.613281 136.339844 178.578125 135.582031 179.546875 C 134.105469 181.441406 132.75 183.425781 131.425781 185.429688 C 130.269531 187.179688 128.550781 189.15625 128.570312 191.363281 C 128.582031 192.855469 129.261719 194.308594 130.070312 195.628906 C 128.984375 195.703125 127.890625 195.867188 126.808594 195.945312 C 126.746094 195.945312 126.683594 195.9375 126.621094 195.933594 C 125.734375 195.867188 124.847656 195.738281 123.960938 195.65625 C 123.804688 195.644531 123.644531 195.628906 123.488281 195.621094 C 123.996094 194.777344 124.402344 193.886719 124.703125 192.949219 C 124.972656 192.105469 125.007812 191.253906 124.808594 190.390625 C 124.804688 190.359375 124.792969 190.324219 124.789062 190.292969 L 124.761719 190.195312 C 124.753906 190.160156 124.746094 190.128906 124.734375 190.09375 C 124.445312 189.066406 123.863281 188.097656 123.21875 187.109375 C 121.671875 184.742188 120.117188 182.375 118.40625 180.125 C 117.617188 179.089844 116.800781 178.082031 115.9375 177.109375 C 115.257812 176.351562 114.542969 175.601562 113.488281 175.46875 C 113.425781 175.460938 113.417969 175.539062 113.453125 175.574219 L 112.9375 176.25 C 112.917969 176.230469 112.894531 176.226562 112.875 176.242188 C 111.324219 177.207031 109.980469 178.691406 109.71875 180.550781 C 109.546875 181.746094 109.859375 182.953125 109.960938 184.144531 C 110.070312 185.429688 110.070312 186.71875 109.960938 188.007812 C 109.847656 189.316406 109.519531 190.601562 109.445312 191.914062 C 109.382812 193.035156 109.628906 194.097656 110.007812 195.148438 C 111.082031 198.097656 112.84375 200.554688 115.292969 202.527344 C 115.652344 202.816406 116.023438 203.085938 116.40625 203.34375 C 116.578125 203.460938 116.839844 203.707031 117.078125 203.660156 C 117.089844 203.65625 117.097656 203.652344 117.109375 203.648438 C 117.328125 203.851562 117.652344 203.957031 117.921875 204.09375 C 118.644531 204.457031 119.371094 204.804688 120.117188 205.117188 C 121.484375 205.699219 122.90625 206.085938 124.382812 206.277344 C 125.1875 206.375 125.996094 206.40625 126.808594 206.375 C 127.167969 206.386719 127.53125 206.386719 127.894531 206.375 C 129.625 206.308594 131.296875 205.957031 132.910156 205.328125 C 133.707031 205.019531 134.484375 204.660156 135.257812 204.28125 C 135.628906 204.097656 136.203125 203.9375 136.5 203.601562 C 136.644531 203.617188 136.816406 203.5625 137.046875 203.410156 C 137.882812 202.863281 138.660156 202.238281 139.375 201.542969 C 140.882812 200.09375 142.082031 198.421875 142.972656 196.53125 C 143.402344 195.609375 143.78125 194.632812 143.992188 193.632812 C 144.199219 192.550781 144.078125 191.46875 143.90625 190.382812 Z M 138.121094 202.554688 C 137.847656 202.800781 137.554688 203.015625 137.242188 203.203125 C 137.542969 203 137.835938 202.785156 138.121094 202.554688 Z M 117.617188 203.882812 L 118.097656 204.125 C 117.9375 204.046875 117.769531 203.96875 117.621094 203.882812 Z M 117.617188 203.882812 " fill-opacity="1" fill-rule="nonzero"/><path fill="#415584" d="M 109.902344 186.023438 C 109.871094 184.996094 109.839844 183.964844 109.808594 182.933594 C 109.78125 182.023438 109.671875 180.96875 108.898438 180.488281 L 109.105469 180.4375 C 107.992188 180.539062 107.035156 181.320312 106.472656 182.277344 C 105.90625 183.234375 105.679688 184.347656 105.527344 185.445312 C 105.304688 186.992188 105.214844 188.597656 105.671875 190.089844 C 105.851562 190.625 106.066406 191.144531 106.324219 191.648438 C 106.664062 192.355469 107.152344 193.144531 107.933594 193.210938 C 108.476562 193.257812 108.992188 192.910156 109.289062 192.457031 C 109.585938 192.003906 109.699219 191.457031 109.773438 190.921875 C 110 189.300781 109.953125 187.660156 109.902344 186.023438 Z M 109.902344 186.023438 " fill-opacity="1" fill-rule="nonzero"/><path fill="#415584" d="M 147.796875 185.445312 C 147.640625 184.347656 147.414062 183.234375 146.851562 182.277344 C 146.285156 181.324219 145.328125 180.539062 144.21875 180.4375 L 144.425781 180.488281 C 143.648438 180.96875 143.539062 182.023438 143.511719 182.933594 C 143.484375 183.964844 143.453125 184.996094 143.421875 186.023438 C 143.371094 187.660156 143.320312 189.300781 143.554688 190.921875 C 143.628906 191.457031 143.738281 192.003906 144.039062 192.457031 C 144.335938 192.914062 144.851562 193.257812 145.394531 193.214844 C 146.175781 193.148438 146.664062 192.359375 147.003906 191.652344 C 147.261719 191.148438 147.476562 190.628906 147.65625 190.09375 C 148.109375 188.597656 148.015625 186.988281 147.796875 185.445312 Z M 147.796875 185.445312 " fill-opacity="1" fill-rule="nonzero"/><path fill="#ff6724" d="M 107.269531 176.765625 C 107.089844 176.1875 106.492188 175.875 105.910156 175.972656 C 105.824219 175.980469 105.769531 176.027344 105.746094 176.109375 L 105.726562 176.109375 C 104.980469 176.042969 104.960938 176.96875 105.152344 177.464844 C 105.371094 178.035156 105.957031 178.378906 106.558594 178.152344 C 107.09375 177.945312 107.445312 177.324219 107.269531 176.765625 Z M 107.269531 176.765625 " fill-opacity="1" fill-rule="nonzero"/><path fill="#ff6724" d="M 148.378906 176.765625 C 148.199219 176.1875 147.597656 175.875 147.015625 175.972656 C 146.929688 175.980469 146.875 176.027344 146.851562 176.109375 L 146.832031 176.109375 C 146.085938 176.042969 146.066406 176.96875 146.257812 177.464844 C 146.476562 178.035156 147.0625 178.378906 147.660156 178.152344 C 148.199219 177.945312 148.550781 177.324219 148.378906 176.765625 Z M 148.378906 176.765625 " fill-opacity="1" fill-rule="nonzero"/><g clip-path="url(#9e6956bb6c)"><path fill="#ff6724" d="M 126.515625 164.164062 C 126.5 164.003906 126.339844 163.859375 126.171875 163.980469 C 125.335938 164.566406 124.8125 165.539062 124.949219 166.574219 C 124.976562 166.8125 125.050781 167.035156 125.175781 167.242188 C 125.300781 167.445312 125.460938 167.613281 125.664062 167.75 C 125.863281 167.882812 126.082031 167.96875 126.320312 168.003906 C 126.558594 168.042969 126.792969 168.027344 127.023438 167.960938 C 129.105469 167.40625 128.816406 163.832031 126.515625 164.164062 Z M 126.515625 164.164062 " fill-opacity="1" fill-rule="nonzero"/></g><path fill="#b3b3b3" d="M 117.367188 197.046875 C 116.253906 198.542969 115.160156 200.058594 114.582031 201.851562 C 114.488281 202.140625 114.949219 202.265625 115.042969 201.976562 C 115.605469 200.222656 116.683594 198.742188 117.773438 197.285156 C 117.960938 197.039062 117.546875 196.804688 117.367188 197.046875 Z M 117.367188 197.046875 " fill-opacity="1" fill-rule="nonzero"/><path fill="#b3b3b3" d="M 110.046875 185.515625 C 110.375 184.925781 110.710938 184.339844 111.054688 183.757812 C 111.257812 183.414062 111.359375 183.132812 111.78125 183.03125 C 112.128906 182.949219 112.535156 182.953125 112.894531 182.917969 C 113.195312 182.886719 113.199219 182.414062 112.894531 182.445312 C 112.328125 182.503906 111.410156 182.390625 111.027344 182.886719 C 110.480469 183.601562 110.074219 184.492188 109.636719 185.277344 C 109.488281 185.542969 109.898438 185.78125 110.046875 185.515625 Z M 110.046875 185.515625 " fill-opacity="1" fill-rule="nonzero"/><path fill="#b3b3b3" d="M 111.605469 195.554688 C 112.042969 195.257812 112.476562 194.929688 112.964844 194.710938 C 113.523438 194.464844 114.089844 194.488281 114.6875 194.542969 C 114.992188 194.570312 114.992188 194.097656 114.6875 194.070312 C 113.371094 193.949219 112.601562 194.332031 111.570312 195.011719 C 110.898438 193.777344 110.472656 192.460938 110.292969 191.070312 C 110.257812 190.773438 109.78125 190.769531 109.820312 191.070312 C 110.011719 192.632812 110.5 194.097656 111.277344 195.46875 C 111.359375 195.605469 111.46875 195.632812 111.605469 195.554688 Z M 111.605469 195.554688 " fill-opacity="1" fill-rule="nonzero"/><path fill="#b3b3b3" d="M 135.996094 197.046875 C 135.816406 196.804688 135.402344 197.039062 135.585938 197.285156 C 136.675781 198.746094 137.753906 200.226562 138.320312 201.980469 C 138.414062 202.265625 138.871094 202.144531 138.777344 201.851562 C 138.207031 200.058594 137.113281 198.542969 135.996094 197.046875 Z M 135.996094 197.046875 " fill-opacity="1" fill-rule="nonzero"/><path fill="#b3b3b3" d="M 143.722656 185.273438 C 143.285156 184.488281 142.878906 183.601562 142.332031 182.882812 C 141.953125 182.390625 141.027344 182.5 140.464844 182.445312 C 140.160156 182.410156 140.164062 182.886719 140.464844 182.917969 C 140.792969 182.949219 141.140625 182.957031 141.464844 183.019531 C 141.964844 183.113281 142.0625 183.351562 142.300781 183.757812 C 142.644531 184.339844 142.980469 184.925781 143.308594 185.515625 C 143.460938 185.78125 143.871094 185.542969 143.722656 185.273438 Z M 143.722656 185.273438 " fill-opacity="1" fill-rule="nonzero"/><path fill="#b3b3b3" d="M 143.066406 191.070312 C 142.890625 192.460938 142.464844 193.777344 141.792969 195.011719 C 140.761719 194.332031 139.988281 193.949219 138.671875 194.070312 C 138.371094 194.097656 138.367188 194.570312 138.671875 194.542969 C 139.269531 194.488281 139.835938 194.460938 140.394531 194.710938 C 140.882812 194.929688 141.316406 195.257812 141.757812 195.554688 C 141.894531 195.632812 142.003906 195.605469 142.082031 195.46875 C 142.863281 194.101562 143.347656 192.632812 143.542969 191.070312 C 143.582031 190.769531 143.105469 190.777344 143.066406 191.070312 Z M 143.066406 191.070312 " fill-opacity="1" fill-rule="nonzero"/><path fill="#b3b3b3" d="M 129.671875 203.066406 C 129.625 202.921875 129.527344 202.867188 129.378906 202.898438 C 128.515625 203.019531 127.648438 203.035156 126.78125 202.953125 C 126.75 202.941406 126.71875 202.941406 126.6875 202.941406 L 126.671875 202.941406 C 126.640625 202.941406 126.609375 202.941406 126.578125 202.953125 C 125.710938 203.035156 124.847656 203.019531 123.980469 202.898438 C 123.832031 202.867188 123.738281 202.921875 123.691406 203.066406 L 122.679688 205.457031 C 122.558594 205.734375 123.019531 205.859375 123.136719 205.582031 L 124.066406 203.382812 C 124.933594 203.492188 125.808594 203.503906 126.679688 203.417969 C 127.554688 203.503906 128.425781 203.488281 129.300781 203.378906 C 129.609375 204.113281 129.917969 204.847656 130.226562 205.582031 C 130.34375 205.859375 130.804688 205.738281 130.683594 205.457031 Z M 129.671875 203.066406 " fill-opacity="1" fill-rule="nonzero"/><path fill="#b3b3b3" d="M 143.023438 195.984375 C 142.808594 196.144531 142.402344 196.578125 142.144531 196.632812 C 141.75 196.710938 141.445312 196.347656 141.148438 196.132812 C 141.113281 196.113281 141.085938 196.121094 141.066406 196.152344 C 140.3125 197.402344 139.503906 198.609375 138.273438 199.441406 C 138.238281 199.460938 138.230469 199.488281 138.25 199.523438 C 138.660156 200.070312 138.957031 200.671875 139.144531 201.328125 C 139.152344 201.351562 139.167969 201.367188 139.191406 201.371094 C 139.214844 201.375 139.234375 201.367188 139.25 201.347656 L 139.28125 201.375 C 139.257812 201.402344 139.257812 201.433594 139.289062 201.457031 C 139.320312 201.484375 139.347656 201.480469 139.375 201.449219 C 140.195312 200.664062 140.914062 199.796875 141.535156 198.847656 C 142.101562 197.976562 142.789062 197.042969 143.113281 196.050781 C 143.121094 196.007812 143.066406 195.949219 143.023438 195.984375 Z M 143.023438 195.984375 " fill-opacity="1" fill-rule="nonzero"/><path fill="#b3b3b3" d="M 141.894531 181.617188 C 142.054688 181.769531 142.335938 181.828125 142.53125 181.941406 C 142.84375 182.132812 143.125 182.359375 143.378906 182.625 C 143.425781 182.671875 143.457031 182.664062 143.476562 182.597656 C 143.597656 181.851562 143.863281 181.066406 143.558594 180.335938 C 143.152344 179.378906 142.507812 178.488281 141.878906 177.667969 C 141.851562 177.628906 141.824219 177.625 141.785156 177.652344 L 141.613281 177.449219 C 141.613281 177.425781 141.613281 177.398438 141.609375 177.375 C 141.605469 177.296875 141.484375 177.296875 141.492188 177.375 C 141.570312 178.652344 141.585938 179.957031 141.738281 181.226562 C 141.765625 181.449219 141.75 181.484375 141.894531 181.617188 Z M 141.894531 181.617188 " fill-opacity="1" fill-rule="nonzero"/><path fill="#b3b3b3" d="M 115.136719 199.441406 C 113.910156 198.613281 113.097656 197.402344 112.34375 196.152344 C 112.324219 196.117188 112.296875 196.109375 112.261719 196.128906 C 111.964844 196.347656 111.660156 196.710938 111.265625 196.628906 C 111.007812 196.578125 110.601562 196.144531 110.386719 195.984375 C 110.34375 195.953125 110.285156 196.003906 110.300781 196.050781 C 110.628906 197.042969 111.3125 197.972656 111.875 198.84375 C 112.496094 199.792969 113.21875 200.664062 114.039062 201.449219 C 114.0625 201.480469 114.089844 201.480469 114.121094 201.457031 C 114.152344 201.429688 114.15625 201.402344 114.128906 201.371094 L 114.164062 201.347656 C 114.179688 201.367188 114.199219 201.371094 114.222656 201.367188 C 114.246094 201.363281 114.261719 201.351562 114.269531 201.328125 C 114.453125 200.671875 114.75 200.070312 115.160156 199.523438 C 115.179688 199.488281 115.171875 199.460938 115.136719 199.441406 Z M 115.136719 199.441406 " fill-opacity="1" fill-rule="nonzero"/><path fill="#b3b3b3" d="M 110.03125 182.625 C 110.257812 182.390625 110.503906 182.183594 110.777344 182.003906 C 110.96875 181.882812 111.261719 181.820312 111.433594 181.675781 C 111.660156 181.488281 111.632812 181.539062 111.671875 181.226562 C 111.820312 179.957031 111.835938 178.652344 111.914062 177.375 C 111.921875 177.296875 111.800781 177.296875 111.796875 177.375 C 111.796875 177.398438 111.796875 177.425781 111.796875 177.449219 L 111.621094 177.65625 C 111.582031 177.625 111.554688 177.632812 111.527344 177.667969 C 110.902344 178.488281 110.253906 179.382812 109.851562 180.335938 C 109.546875 181.0625 109.8125 181.847656 109.933594 182.59375 C 109.9375 182.617188 109.953125 182.632812 109.976562 182.636719 C 109.996094 182.644531 110.015625 182.640625 110.03125 182.625 Z M 110.03125 182.625 " fill-opacity="1" fill-rule="nonzero"/><path fill="#415584" d="M 126.75 170.367188 L 126.75 170.355469 L 126.683594 170.359375 L 126.609375 170.355469 L 126.609375 170.371094 C 125.457031 170.503906 117.394531 171.59375 112.839844 176.363281 L 113.320312 189.265625 C 113.320312 189.265625 113.421875 195.488281 114.6875 196.699219 C 115.953125 197.90625 122.617188 199.65625 126.589844 199.695312 L 126.769531 199.695312 C 130.746094 199.65625 137.417969 197.894531 138.671875 196.699219 C 139.925781 195.503906 140.039062 189.265625 140.039062 189.265625 L 140.519531 176.363281 C 135.964844 171.59375 127.902344 170.503906 126.75 170.367188 Z M 126.75 170.367188 " fill-opacity="1" fill-rule="nonzero"/><path fill="#263151" d="M 138.355469 181.089844 C 138.347656 180.808594 138.308594 180.53125 138.230469 180.261719 C 138.03125 179.664062 137.5 179.226562 136.914062 178.988281 C 136.332031 178.75 135.695312 178.683594 135.070312 178.617188 C 134.878906 178.582031 134.691406 178.59375 134.507812 178.644531 C 134.179688 178.757812 134.011719 179.105469 133.871094 179.421875 C 133.242188 180.851562 132.558594 182.28125 131.5625 183.488281 C 130.566406 184.695312 129.21875 185.675781 127.675781 185.945312 C 127.332031 186.007812 126.027344 186.007812 125.683594 185.945312 C 124.140625 185.675781 122.792969 184.695312 121.796875 183.488281 C 120.800781 182.28125 120.117188 180.851562 119.488281 179.421875 C 119.347656 179.109375 119.179688 178.757812 118.851562 178.644531 C 118.667969 178.59375 118.480469 178.582031 118.289062 178.617188 C 117.664062 178.683594 117.027344 178.75 116.445312 178.988281 C 115.863281 179.226562 115.332031 179.664062 115.128906 180.261719 C 115.050781 180.53125 115.011719 180.808594 115.007812 181.089844 C 114.789062 184.835938 114.863281 188.574219 115.222656 192.308594 C 115.308594 193.195312 115.417969 194.101562 115.820312 194.898438 C 116.21875 195.695312 116.980469 196.371094 117.875 196.429688 C 118.457031 196.558594 123.675781 197.890625 125.550781 197.9375 C 125.933594 197.945312 127.425781 197.945312 127.808594 197.9375 C 129.683594 197.890625 134.902344 196.558594 135.484375 196.429688 C 136.378906 196.371094 137.136719 195.691406 137.542969 194.898438 C 137.945312 194.105469 138.050781 193.195312 138.136719 192.308594 C 138.496094 188.574219 138.570312 184.835938 138.355469 181.089844 Z M 138.355469 181.089844 " fill-opacity="1" fill-rule="nonzero"/><path fill="#263151" d="M 146.78125 191.691406 C 146.746094 191.714844 146.710938 191.738281 146.675781 191.765625 C 146.355469 191.859375 146.21875 191.761719 146.261719 191.464844 C 146.25 191.324219 146.246094 191.183594 146.25 191.046875 C 146.265625 190.886719 146.28125 190.726562 146.292969 190.566406 L 146.292969 190.558594 C 146.394531 189.019531 146.195312 187.476562 145.824219 185.957031 C 145.816406 185.929688 145.796875 185.914062 145.765625 185.914062 C 145.738281 185.914062 145.71875 185.929688 145.710938 185.957031 C 145.570312 186.722656 145.40625 187.480469 145.203125 188.230469 C 145.191406 188.261719 145.1875 188.296875 145.175781 188.335938 C 145.058594 188.496094 144.914062 188.546875 144.714844 188.269531 C 144.652344 188.171875 144.617188 188.0625 144.609375 187.949219 C 144.597656 187.828125 144.589844 187.707031 144.585938 187.589844 C 144.585938 187.484375 144.578125 187.378906 144.566406 187.273438 C 144.5625 187.191406 144.558594 187.113281 144.550781 187.039062 C 144.433594 185.902344 144.335938 184.769531 144.179688 183.640625 C 144.121094 182.769531 144.191406 181.902344 144.386719 181.050781 C 144.402344 180.976562 144.292969 180.945312 144.269531 181.019531 C 144.230469 181.191406 144.195312 181.363281 144.167969 181.53125 L 144.101562 181.734375 C 144.058594 181.714844 144.035156 181.726562 144.027344 181.769531 C 143.984375 181.941406 143.949219 182.117188 143.921875 182.292969 C 143.875 182.28125 143.847656 182.300781 143.839844 182.347656 C 143.535156 185.566406 143.546875 188.78125 143.882812 191.996094 C 143.976562 192.816406 144.230469 193.324219 145.125 193.308594 C 145.394531 193.300781 145.542969 193.308594 145.703125 193.089844 C 145.730469 193.046875 145.757812 193 145.777344 192.949219 C 145.789062 192.96875 145.808594 192.984375 145.828125 192.996094 C 145.988281 193.078125 146.25 192.757812 146.339844 192.667969 C 146.59375 192.417969 146.859375 192.113281 146.871094 191.746094 C 146.867188 191.679688 146.839844 191.660156 146.78125 191.691406 Z M 146.78125 191.691406 " fill-opacity="1" fill-rule="nonzero"/><path fill="#263151" d="M 109.628906 182.347656 C 109.625 182.300781 109.597656 182.28125 109.550781 182.289062 C 109.523438 182.113281 109.488281 181.9375 109.445312 181.769531 C 109.4375 181.726562 109.410156 181.714844 109.371094 181.730469 L 109.304688 181.53125 C 109.277344 181.359375 109.242188 181.1875 109.199219 181.015625 C 109.183594 180.941406 109.066406 180.972656 109.085938 181.046875 C 109.28125 181.902344 109.347656 182.761719 109.292969 183.636719 C 109.128906 184.761719 109.035156 185.898438 108.921875 187.03125 C 108.878906 187.429688 108.832031 187.828125 108.78125 188.226562 C 108.773438 188.238281 108.765625 188.253906 108.757812 188.265625 C 108.570312 188.535156 108.421875 188.492188 108.304688 188.34375 C 108.085938 187.558594 107.910156 186.757812 107.765625 185.953125 C 107.757812 185.925781 107.738281 185.910156 107.707031 185.910156 C 107.679688 185.910156 107.660156 185.925781 107.652344 185.953125 C 107.28125 187.472656 107.082031 189.015625 107.1875 190.554688 L 107.1875 190.5625 C 107.199219 190.71875 107.210938 190.878906 107.230469 191.039062 C 107.234375 191.179688 107.230469 191.316406 107.214844 191.457031 C 107.261719 191.753906 107.121094 191.851562 106.804688 191.757812 C 106.769531 191.730469 106.734375 191.707031 106.699219 191.683594 C 106.679688 191.671875 106.65625 191.671875 106.636719 191.683594 C 106.613281 191.695312 106.605469 191.710938 106.605469 191.734375 C 106.613281 192.085938 106.847656 192.363281 107.082031 192.605469 C 107.167969 192.695312 107.472656 193.074219 107.648438 192.984375 C 107.667969 192.976562 107.683594 192.960938 107.699219 192.941406 C 107.71875 192.992188 107.742188 193.042969 107.773438 193.085938 C 107.933594 193.300781 108.085938 193.296875 108.351562 193.300781 C 109.242188 193.320312 109.507812 192.8125 109.59375 191.988281 C 109.925781 188.777344 109.941406 185.5625 109.628906 182.347656 Z M 109.628906 182.347656 " fill-opacity="1" fill-rule="nonzero"/><path fill="#263151" d="M 118.847656 177.101562 C 118.800781 176.824219 118.777344 176.085938 118.492188 175.929688 C 118.230469 175.785156 117.269531 176.273438 117.011719 176.363281 C 116.472656 176.546875 115.621094 176.710938 115.171875 177.058594 C 114.863281 177.296875 114.925781 177.667969 114.957031 178.042969 C 114.945312 178.144531 114.949219 178.246094 114.972656 178.34375 C 114.980469 178.375 115 178.390625 115.027344 178.390625 C 115.574219 178.441406 116.265625 177.910156 116.792969 177.773438 C 117.480469 177.589844 118.171875 177.472656 118.820312 177.167969 C 118.84375 177.152344 118.855469 177.128906 118.847656 177.101562 Z M 118.847656 177.101562 " fill-opacity="1" fill-rule="nonzero"/><path fill="#263151" d="M 114.988281 176.527344 C 115.308594 176.355469 115.644531 176.210938 115.992188 176.09375 L 116.523438 175.921875 C 117.144531 175.738281 117.777344 175.582031 118.355469 175.398438 C 118.394531 175.386719 118.410156 175.363281 118.398438 175.324219 C 118.308594 175.09375 118.203125 174.871094 118.074219 174.65625 C 118.054688 174.625 118.027344 174.617188 117.992188 174.636719 C 117.121094 175.03125 116.25 175.425781 115.386719 175.839844 C 115.125 175.96875 114.746094 176.097656 114.929688 176.421875 C 114.859375 176.460938 114.917969 176.5625 114.988281 176.527344 Z M 114.988281 176.527344 " fill-opacity="1" fill-rule="nonzero"/><path fill="#263151" d="M 138.464844 177.113281 C 138.296875 176.945312 137.941406 176.882812 137.722656 176.796875 C 137.332031 176.644531 136.9375 176.5 136.542969 176.363281 C 136.269531 176.269531 135.335938 175.789062 135.070312 175.929688 C 134.777344 176.078125 134.753906 176.839844 134.707031 177.101562 C 134.703125 177.132812 134.710938 177.152344 134.738281 177.167969 C 135.386719 177.476562 136.078125 177.59375 136.765625 177.777344 C 137.292969 177.914062 137.976562 178.445312 138.527344 178.390625 C 138.558594 178.390625 138.578125 178.375 138.585938 178.347656 C 138.605469 178.25 138.613281 178.148438 138.601562 178.050781 C 138.628906 177.722656 138.683594 177.335938 138.464844 177.113281 Z M 138.464844 177.113281 " fill-opacity="1" fill-rule="nonzero"/><path fill="#263151" d="M 138.628906 176.425781 C 138.816406 176.101562 138.433594 175.96875 138.171875 175.84375 C 137.308594 175.429688 136.4375 175.03125 135.566406 174.636719 C 135.53125 174.617188 135.507812 174.625 135.484375 174.65625 C 135.359375 174.871094 135.25 175.09375 135.160156 175.328125 C 135.152344 175.367188 135.167969 175.390625 135.203125 175.402344 C 135.78125 175.585938 136.417969 175.738281 137.035156 175.921875 L 137.570312 176.09375 C 137.914062 176.210938 138.25 176.355469 138.570312 176.527344 C 138.636719 176.5625 138.695312 176.460938 138.628906 176.425781 Z M 138.628906 176.425781 " fill-opacity="1" fill-rule="nonzero"/><path fill="#ffffff" d="M 107.96875 180.574219 C 105.242188 182.246094 104.496094 185.5625 105.277344 188.511719 C 105.300781 188.613281 105.367188 188.660156 105.472656 188.644531 C 105.460938 188.871094 105.453125 189.097656 105.457031 189.324219 C 105.457031 189.574219 105.847656 189.574219 105.84375 189.324219 C 105.828125 187.640625 106.167969 186.035156 106.867188 184.503906 C 107.15625 183.875 107.554688 183.300781 107.847656 182.679688 C 108.140625 182.054688 108.242188 181.417969 108.253906 180.738281 C 108.253906 180.664062 108.21875 180.613281 108.15625 180.574219 C 108.09375 180.539062 108.03125 180.539062 107.96875 180.574219 Z M 107.96875 180.574219 " fill-opacity="1" fill-rule="nonzero"/><path fill="#ffffff" d="M 145.476562 180.574219 C 145.410156 180.535156 145.347656 180.535156 145.28125 180.574219 C 145.214844 180.609375 145.183594 180.667969 145.183594 180.742188 C 145.199219 181.417969 145.300781 182.058594 145.589844 182.679688 C 145.882812 183.300781 146.28125 183.875 146.574219 184.503906 C 147.273438 186.035156 147.613281 187.644531 147.59375 189.328125 C 147.59375 189.578125 147.980469 189.574219 147.984375 189.328125 C 147.984375 189.101562 147.976562 188.875 147.96875 188.648438 C 148.074219 188.664062 148.136719 188.617188 148.160156 188.511719 C 148.945312 185.566406 148.203125 182.246094 145.476562 180.574219 Z M 145.476562 180.574219 " fill-opacity="1" fill-rule="nonzero"/><path fill="#ffffff" d="M 119.292969 173.097656 C 119.066406 172.585938 118.90625 171.925781 118.226562 172.164062 C 117.40625 172.441406 116.605469 172.953125 115.871094 173.402344 C 114.617188 174.171875 112.726562 175.160156 112.742188 176.828125 C 112.742188 176.960938 112.808594 177.023438 112.945312 177.011719 C 112.914062 177.046875 112.886719 177.082031 112.851562 177.121094 C 112.695312 177.3125 112.96875 177.585938 113.128906 177.398438 C 113.894531 176.449219 114.789062 175.648438 115.820312 174.996094 C 116.882812 174.328125 118.074219 173.867188 119.222656 173.363281 C 119.324219 173.316406 119.328125 173.1875 119.292969 173.097656 Z M 119.292969 173.097656 " fill-opacity="1" fill-rule="nonzero"/><path fill="#ffffff" d="M 140.730469 176.824219 C 140.746094 175.152344 138.855469 174.167969 137.601562 173.398438 C 136.871094 172.949219 136.066406 172.441406 135.246094 172.160156 C 134.566406 171.925781 134.410156 172.582031 134.183594 173.09375 C 134.144531 173.183594 134.148438 173.316406 134.253906 173.359375 C 135.398438 173.867188 136.589844 174.324219 137.65625 174.992188 C 138.6875 175.644531 139.585938 176.445312 140.347656 177.394531 C 140.503906 177.589844 140.777344 177.3125 140.625 177.117188 L 140.53125 177.007812 C 140.667969 177.019531 140.734375 176.957031 140.730469 176.824219 Z M 140.730469 176.824219 " fill-opacity="1" fill-rule="nonzero"/><path fill="#ffffff" d="M 134.308594 171.902344 C 132.253906 171.378906 130.171875 170.992188 128.0625 170.75 C 128.03125 170.679688 127.984375 170.625 127.921875 170.585938 C 127.816406 170.539062 127.707031 170.523438 127.597656 170.542969 C 127.292969 170.5625 126.988281 170.585938 126.6875 170.613281 C 126.382812 170.585938 126.082031 170.5625 125.777344 170.542969 C 125.664062 170.523438 125.558594 170.539062 125.453125 170.585938 C 125.386719 170.625 125.339844 170.679688 125.3125 170.75 C 123.203125 170.992188 121.121094 171.378906 119.066406 171.902344 L 118.765625 171.984375 C 119.148438 173.46875 120.039062 174.773438 120.621094 176.191406 C 121.101562 177.371094 121.371094 178.621094 121.75 179.835938 C 122.128906 181.050781 122.640625 182.257812 123.511719 183.183594 C 124.136719 183.839844 124.878906 184.308594 125.738281 184.585938 C 126.03125 184.679688 126.324219 184.75 126.628906 184.792969 C 126.644531 184.796875 126.660156 184.796875 126.675781 184.792969 C 127.011719 184.746094 127.34375 184.675781 127.664062 184.574219 C 128.511719 184.296875 129.246094 183.835938 129.859375 183.1875 C 130.734375 182.265625 131.246094 181.054688 131.625 179.839844 C 132 178.625 132.273438 177.375 132.753906 176.195312 C 133.335938 174.777344 134.222656 173.476562 134.609375 171.988281 Z M 134.308594 171.902344 " fill-opacity="1" fill-rule="nonzero"/><path fill="#263151" d="M 115.113281 168.996094 C 114.277344 169.371094 113.402344 169.710938 112.636719 170.214844 C 111.941406 170.675781 111.335938 171.246094 110.734375 171.816406 C 110.289062 172.234375 110.960938 172.902344 111.40625 172.484375 C 112.011719 171.910156 112.621094 171.328125 113.339844 170.890625 C 114.0625 170.457031 114.839844 170.152344 115.59375 169.8125 C 116.148438 169.5625 115.664062 168.746094 115.113281 168.996094 Z M 115.113281 168.996094 " fill-opacity="1" fill-rule="nonzero"/><path fill="#263151" d="M 107.710938 170.710938 C 108.726562 169.425781 109.921875 168.335938 111.300781 167.441406 C 112.675781 166.546875 114.160156 165.898438 115.753906 165.492188 C 116.34375 165.34375 116.09375 164.429688 115.5 164.578125 C 113.828125 165.003906 112.269531 165.683594 110.820312 166.617188 C 109.371094 167.554688 108.109375 168.695312 107.039062 170.042969 C 106.660156 170.515625 107.332031 171.1875 107.710938 170.710938 Z M 107.710938 170.710938 " fill-opacity="1" fill-rule="nonzero"/><g clip-path="url(#891d29ad28)"><path fill="#263151" d="M 148.621094 177.8125 C 148.953125 177.359375 148.9375 176.789062 148.699219 176.320312 C 148.6875 176.273438 148.667969 176.230469 148.640625 176.191406 C 148.59375 176.117188 148.539062 176.046875 148.476562 175.984375 C 148.320312 175.792969 148.128906 175.648438 147.902344 175.546875 C 147.851562 175.523438 147.800781 175.511719 147.746094 175.507812 C 147.484375 175.417969 147.21875 175.402344 146.949219 175.460938 C 146.679688 175.515625 146.445312 175.640625 146.242188 175.824219 C 145.523438 176.472656 145.488281 177.722656 146.285156 178.3125 C 146.296875 178.320312 146.308594 178.328125 146.320312 178.335938 C 146.152344 178.960938 145.972656 179.589844 145.832031 180.222656 C 145.648438 180.132812 145.457031 180.066406 145.257812 180.027344 C 144.820312 179.941406 144.414062 180.015625 144.039062 180.25 C 143.371094 178.523438 142.214844 176.988281 140.863281 175.6875 C 140.84375 175.664062 140.820312 175.644531 140.796875 175.625 C 140.15625 175.015625 139.476562 174.449219 138.757812 173.929688 C 135.382812 171.472656 131.285156 170.246094 127.128906 170.109375 C 127.167969 169.582031 127.175781 169.050781 127.152344 168.519531 C 127.152344 168.511719 127.152344 168.503906 127.152344 168.492188 C 127.394531 168.445312 127.625 168.363281 127.84375 168.246094 C 128.96875 167.644531 129.292969 166.140625 128.710938 165.046875 C 128.09375 163.898438 126.542969 163.375 125.445312 164.191406 C 125.441406 164.191406 125.4375 164.199219 125.433594 164.203125 C 125.203125 164.363281 125.003906 164.558594 124.839844 164.785156 C 124.675781 165.011719 124.554688 165.257812 124.476562 165.527344 C 124.394531 165.796875 124.359375 166.070312 124.375 166.347656 C 124.386719 166.628906 124.445312 166.898438 124.550781 167.160156 C 124.691406 167.507812 124.910156 167.804688 125.203125 168.042969 C 125.496094 168.28125 125.832031 168.433594 126.203125 168.5 C 126.203125 168.507812 126.203125 168.515625 126.203125 168.523438 C 126.226562 169.054688 126.21875 169.585938 126.179688 170.117188 C 122.058594 170.261719 117.996094 171.488281 114.640625 173.929688 C 113.925781 174.449219 113.246094 175.015625 112.605469 175.621094 C 112.582031 175.640625 112.558594 175.664062 112.539062 175.6875 C 111.1875 176.988281 110.03125 178.519531 109.367188 180.242188 C 109.15625 180.113281 108.921875 180.035156 108.675781 180.011719 C 108.285156 179.976562 107.917969 180.046875 107.570312 180.230469 C 107.429688 179.59375 107.25 178.96875 107.082031 178.339844 C 107.09375 178.332031 107.105469 178.324219 107.117188 178.316406 C 107.921875 177.71875 107.871094 176.488281 107.160156 175.828125 C 106.960938 175.640625 106.722656 175.515625 106.453125 175.460938 C 106.183594 175.402344 105.914062 175.417969 105.652344 175.511719 C 105.601562 175.515625 105.550781 175.527344 105.503906 175.550781 C 105.273438 175.652344 105.082031 175.796875 104.921875 175.992188 C 104.863281 176.054688 104.808594 176.121094 104.761719 176.195312 C 104.734375 176.234375 104.714844 176.277344 104.703125 176.324219 C 104.464844 176.792969 104.449219 177.363281 104.78125 177.816406 C 105.117188 178.273438 105.640625 178.589844 106.171875 178.613281 C 106.375 179.359375 106.59375 180.105469 106.738281 180.863281 C 106.640625 180.960938 106.550781 181.0625 106.46875 181.167969 C 105.28125 182.691406 104.84375 184.796875 104.789062 186.683594 C 104.75 187.898438 104.894531 189.09375 105.21875 190.265625 C 105.488281 191.246094 105.945312 192.851562 106.816406 193.460938 C 107.488281 193.929688 108.300781 193.96875 109.027344 193.667969 C 109.488281 195.828125 110.601562 197.902344 111.914062 199.644531 C 113.945312 202.367188 116.542969 204.351562 119.707031 205.59375 C 121.925781 206.453125 124.296875 206.824219 126.667969 206.835938 C 126.679688 206.835938 126.691406 206.835938 126.703125 206.835938 C 126.714844 206.835938 126.726562 206.835938 126.738281 206.835938 C 130.664062 206.8125 134.539062 205.742188 137.71875 203.398438 C 140.171875 201.585938 142.050781 199.304688 143.355469 196.554688 C 143.800781 195.636719 144.140625 194.679688 144.375 193.6875 C 144.875 193.882812 145.476562 193.921875 145.886719 193.804688 C 147.054688 193.476562 147.492188 192.234375 147.882812 191.207031 C 148.320312 190.039062 148.5625 188.832031 148.613281 187.585938 C 148.707031 185.582031 148.347656 183.359375 147.261719 181.632812 C 147.089844 181.355469 146.894531 181.097656 146.671875 180.859375 C 146.816406 180.101562 147.035156 179.355469 147.234375 178.613281 C 147.761719 178.585938 148.28125 178.277344 148.621094 177.8125 Z M 147.441406 176.375 C 147.753906 176.519531 148.042969 176.828125 147.882812 177.207031 C 147.746094 177.527344 147.277344 177.777344 146.953125 177.617188 C 146.242188 177.273438 146.855469 176.234375 147.441406 176.375 Z M 125.542969 167.03125 C 125.171875 166.449219 125.292969 165.523438 125.820312 165.0625 C 125.855469 165.050781 125.890625 165.03125 125.921875 165.007812 C 127.351562 163.941406 128.898438 166.359375 127.527344 167.328125 C 126.914062 167.761719 125.960938 167.675781 125.542969 167.03125 Z M 105.539062 177.25 C 105.339844 176.867188 105.628906 176.523438 105.960938 176.371094 C 106.546875 176.234375 107.15625 177.277344 106.449219 177.617188 C 106.136719 177.769531 105.691406 177.550781 105.539062 177.25 Z M 106.53125 191.183594 C 105.65625 189.011719 105.484375 186.789062 106.019531 184.511719 C 106.210938 183.695312 106.488281 182.886719 106.925781 182.167969 C 107.089844 181.886719 107.285156 181.636719 107.519531 181.410156 C 107.558594 181.371094 107.601562 181.335938 107.648438 181.308594 C 107.464844 182.007812 107.390625 183.863281 107.597656 183.894531 C 107.851562 183.925781 108.480469 181.796875 108.726562 180.996094 C 108.925781 180.996094 109.070312 181.085938 109.167969 181.257812 C 109.179688 181.40625 109.195312 181.558594 109.210938 181.707031 C 109.203125 181.78125 109.207031 181.851562 109.230469 181.921875 C 109.449219 184.160156 109.511719 186.402344 109.425781 188.652344 C 109.398438 189.269531 109.351562 189.886719 109.289062 190.503906 C 109.25 190.882812 109.203125 191.261719 109.144531 191.640625 C 109.105469 191.878906 109.113281 192.351562 108.976562 192.554688 C 108.871094 192.71875 108.601562 192.832031 108.328125 192.890625 C 108.042969 191.789062 107.628906 189.089844 107.390625 189.089844 C 107.152344 189.085938 107.054688 191.574219 107.273438 192.566406 C 106.914062 192.191406 106.703125 191.597656 106.53125 191.183594 Z M 133.351562 204.71875 C 131.234375 205.523438 128.996094 205.875 126.738281 205.890625 C 126.722656 205.890625 126.714844 205.890625 126.703125 205.890625 C 126.6875 205.890625 126.679688 205.890625 126.664062 205.890625 C 122.894531 205.867188 119.214844 204.832031 116.167969 202.578125 C 113.835938 200.839844 112.058594 198.648438 110.835938 196.015625 C 110.375 195.042969 110.046875 194.023438 109.851562 192.964844 C 110.1875 192.292969 110.15625 191.234375 110.222656 190.628906 C 110.570312 187.441406 110.425781 184.203125 110.09375 181.019531 C 110.550781 179.601562 111.394531 178.300781 112.414062 177.160156 C 112.367188 181.046875 113.042969 189.246094 113.273438 189.257812 C 113.519531 189.269531 113.296875 180.386719 113.378906 176.179688 C 114.902344 174.753906 116.621094 173.621094 118.53125 172.78125 C 119.496094 175.554688 122 181.375 122.226562 181.320312 C 122.453125 181.265625 120.382812 175.222656 119.40625 172.417969 C 121.753906 171.527344 124.1875 171.070312 126.703125 171.046875 C 129.214844 171.074219 131.648438 171.53125 133.996094 172.421875 C 133.019531 175.230469 130.929688 181.261719 131.160156 181.324219 C 131.390625 181.386719 133.90625 175.558594 134.871094 172.785156 C 136.78125 173.628906 138.496094 174.761719 140.019531 176.183594 C 140.101562 180.394531 139.835938 189.246094 140.0625 189.261719 C 140.308594 189.277344 141.03125 181.050781 140.984375 177.164062 C 142.007812 178.308594 142.851562 179.605469 143.304688 181.023438 C 143.007812 183.863281 142.875 186.738281 143.082031 189.585938 C 143.125 190.191406 143.1875 190.792969 143.265625 191.394531 C 143.332031 191.871094 143.34375 192.488281 143.546875 192.957031 C 142.679688 198.210938 138.207031 202.863281 133.351562 204.71875 Z M 147.382812 184.511719 C 147.917969 186.789062 147.746094 189.011719 146.871094 191.183594 C 146.703125 191.59375 146.484375 192.183594 146.132812 192.558594 C 146.351562 191.570312 146.21875 189.066406 145.964844 189.089844 C 145.746094 189.113281 145.367188 191.789062 145.078125 192.890625 C 144.800781 192.835938 144.53125 192.71875 144.425781 192.554688 C 144.144531 192.136719 144.179688 191.117188 144.125 190.632812 C 144.054688 189.972656 144.007812 189.3125 143.976562 188.652344 C 143.890625 186.402344 143.953125 184.15625 144.167969 181.917969 C 144.191406 181.847656 144.199219 181.777344 144.191406 181.703125 C 144.203125 181.554688 144.21875 181.402344 144.234375 181.253906 C 144.328125 181.082031 144.476562 180.992188 144.675781 180.992188 C 144.921875 181.792969 145.550781 183.925781 145.804688 183.890625 C 146.011719 183.863281 145.9375 182.007812 145.753906 181.304688 C 145.800781 181.335938 145.84375 181.367188 145.882812 181.40625 C 146.117188 181.632812 146.3125 181.886719 146.476562 182.167969 C 146.914062 182.886719 147.191406 183.695312 147.382812 184.511719 Z M 147.382812 184.511719 " fill-opacity="1" fill-rule="nonzero"/></g><path fill="#263151" d="M 138.289062 168.996094 C 137.734375 168.75 137.253906 169.5625 137.8125 169.8125 C 138.566406 170.152344 139.355469 170.460938 140.0625 170.890625 C 140.773438 171.324219 141.390625 171.90625 141.996094 172.484375 C 142.441406 172.902344 143.109375 172.234375 142.667969 171.816406 C 142.066406 171.246094 141.460938 170.671875 140.765625 170.214844 C 140 169.710938 139.125 169.371094 138.289062 168.996094 Z M 138.289062 168.996094 " fill-opacity="1" fill-rule="nonzero"/><path fill="#263151" d="M 137.648438 165.492188 C 139.242188 165.898438 140.722656 166.546875 142.101562 167.441406 C 143.476562 168.335938 144.671875 169.425781 145.6875 170.710938 C 146.066406 171.1875 146.734375 170.515625 146.359375 170.042969 C 145.289062 168.695312 144.027344 167.554688 142.582031 166.617188 C 141.132812 165.683594 139.574219 165.003906 137.902344 164.578125 C 137.3125 164.429688 137.058594 165.339844 137.648438 165.492188 Z M 137.648438 165.492188 " fill-opacity="1" fill-rule="nonzero"/><path fill="#9dfff2" d="M 121.425781 188.71875 C 121.425781 189.234375 121.359375 189.734375 121.230469 190.210938 C 121.097656 190.691406 120.910156 191.113281 120.664062 191.476562 C 120.421875 191.84375 120.140625 192.125 119.820312 192.324219 C 119.503906 192.523438 119.171875 192.621094 118.828125 192.621094 C 118.480469 192.621094 118.148438 192.523438 117.832031 192.324219 C 117.511719 192.125 117.230469 191.84375 116.988281 191.476562 C 116.742188 191.113281 116.554688 190.691406 116.425781 190.210938 C 116.292969 189.734375 116.226562 189.234375 116.226562 188.71875 C 116.226562 188.199219 116.292969 187.703125 116.425781 187.222656 C 116.554688 186.746094 116.742188 186.324219 116.988281 185.957031 C 117.230469 185.589844 117.511719 185.308594 117.832031 185.109375 C 118.148438 184.914062 118.480469 184.8125 118.828125 184.8125 C 119.171875 184.8125 119.503906 184.914062 119.820312 185.109375 C 120.140625 185.308594 120.421875 185.589844 120.664062 185.957031 C 120.910156 186.324219 121.097656 186.746094 121.230469 187.222656 C 121.359375 187.703125 121.425781 188.199219 121.425781 188.71875 Z M 121.425781 188.71875 " fill-opacity="1" fill-rule="nonzero"/><path fill="#9dfff2" d="M 137.175781 188.71875 C 137.175781 189.234375 137.109375 189.734375 136.980469 190.210938 C 136.847656 190.691406 136.660156 191.113281 136.414062 191.476562 C 136.171875 191.84375 135.890625 192.125 135.570312 192.324219 C 135.253906 192.523438 134.921875 192.621094 134.574219 192.621094 C 134.230469 192.621094 133.898438 192.523438 133.582031 192.324219 C 133.261719 192.125 132.980469 191.84375 132.738281 191.476562 C 132.492188 191.113281 132.304688 190.691406 132.171875 190.210938 C 132.042969 189.734375 131.976562 189.234375 131.976562 188.71875 C 131.976562 188.199219 132.042969 187.703125 132.171875 187.222656 C 132.304688 186.746094 132.492188 186.324219 132.738281 185.957031 C 132.980469 185.589844 133.261719 185.308594 133.582031 185.109375 C 133.898438 184.914062 134.230469 184.8125 134.574219 184.8125 C 134.921875 184.8125 135.253906 184.914062 135.570312 185.109375 C 135.890625 185.308594 136.171875 185.589844 136.414062 185.957031 C 136.660156 186.324219 136.847656 186.746094 136.980469 187.222656 C 137.109375 187.703125 137.175781 188.199219 137.175781 188.71875 Z M 137.175781 188.71875 " fill-opacity="1" fill-rule="nonzero"/><path fill="#b3b3b3" d="M 130.078125 172.71875 C 129.625 172.492188 129.066406 172.441406 128.574219 172.378906 C 127.726562 172.273438 126.871094 172.25 126.019531 172.308594 C 124.886719 172.390625 123.765625 172.542969 122.652344 172.769531 C 122.492188 172.800781 122.28125 172.847656 122.058594 172.894531 C 121.925781 172.925781 121.808594 172.980469 121.703125 173.0625 C 121.59375 173.144531 121.511719 173.246094 121.449219 173.363281 C 121.390625 173.484375 121.355469 173.609375 121.351562 173.746094 C 121.347656 173.878906 121.371094 174.007812 121.421875 174.128906 C 121.46875 174.234375 121.515625 174.335938 121.550781 174.4375 C 122.222656 176.0625 122.652344 177.734375 123.023438 179.480469 C 123.3125 180.84375 123.890625 182.371094 125.230469 182.925781 C 125.296875 182.953125 125.347656 182.9375 125.386719 182.878906 C 125.429688 182.824219 125.425781 182.769531 125.375 182.71875 C 124.929688 182.261719 124.261719 181.335938 123.808594 179.429688 C 123.613281 178.671875 123.4375 177.914062 123.273438 177.152344 C 123.238281 176.992188 122.949219 175.78125 122.902344 175.496094 C 122.875 175.199219 122.902344 174.957031 123.042969 174.859375 C 123.109375 174.816406 123.183594 174.785156 123.257812 174.765625 C 123.320312 174.753906 123.378906 174.738281 123.441406 174.726562 C 125.015625 174.339844 126.058594 174.332031 127.863281 174.347656 C 128.359375 174.351562 128.882812 174.429688 129.304688 174.121094 C 129.613281 173.894531 129.980469 173.398438 130.183594 173.101562 C 130.230469 173.035156 130.242188 172.964844 130.222656 172.886719 C 130.203125 172.808594 130.152344 172.75 130.078125 172.71875 Z M 130.078125 172.71875 " fill-opacity="1" fill-rule="nonzero"/><path fill="#b3b3b3" d="M 128.542969 175.503906 C 127.65625 175.351562 126.765625 175.320312 125.871094 175.410156 C 125.445312 175.449219 124.269531 175.535156 123.976562 175.890625 C 123.804688 176.101562 124.101562 177.21875 124.359375 177.667969 C 124.421875 177.789062 124.515625 177.878906 124.636719 177.9375 C 124.871094 177.9375 124.699219 177.105469 125.722656 176.679688 C 126.179688 176.5 127.910156 176.441406 128.863281 176.53125 C 129.132812 176.558594 129.984375 176.609375 129.839844 176.0625 C 129.753906 175.734375 128.804688 175.546875 128.542969 175.503906 Z M 128.542969 175.503906 " fill-opacity="1" fill-rule="nonzero"/></svg>